<?xml version="1.0" encoding="utf-8"?>
<!-- Generator: Adobe Illustrator 23.0.1, SVG Export Plug-In . SVG Version: 6.00 Build 0)  -->
<svg version="1.1" id="Layer_1" xmlns="http://www.w3.org/2000/svg" xmlns:xlink="http://www.w3.org/1999/xlink" x="0px" y="0px"
	 viewBox="0 0 500 500" style="enable-background:new 0 0 500 500;" xml:space="preserve">
<style type="text/css">
	.st0{fill:#FFFFFF;}
	.st1{fill:#000063;}
	.st2{fill:#FFB2A8;}
	.st3{fill:#FF8080;}
	.st4{fill:none;stroke:#000063;stroke-width:2.1516;stroke-miterlimit:10;}
	.st5{fill:#A33636;}
	.st6{fill:#FF6060;}
	.st7{fill:#00CCBE;}
</style>
<g>
	<path class="st0" d="M500,250c0,64.9-24.7,124-65.3,168.5c-0.7,0.8-1.4,1.5-2,2.2c-0.2,0.2-0.4,0.4-0.6,0.6
		c-4.2,4.4-8.5,8.7-13,12.8c-2.3,2.1-4.6,4.2-6.9,6.2c-16.4,14-34.6,25.9-54.2,35.3C325.3,491.2,288.7,500,250,500
		c-29.5,0-57.9-5.1-84.2-14.5c-21.6-7.7-41.9-18.4-60.3-31.4c-0.2-0.1-0.4-0.3-0.5-0.4c-0.2-0.2-0.4-0.3-0.6-0.5
		c-2.2-1.6-4.5-3.2-6.6-4.9c-2.6-2-5.1-4-7.6-6C35.1,396.4,0,327.3,0,250C0,111.9,111.9,0,250,0S500,111.9,500,250z"/>
	<g id="XMLID_220_">
		<ellipse id="XMLID_27_" class="st1" cx="244.7" cy="179.8" rx="77.8" ry="77.8"/>
		
			<ellipse id="XMLID_85_" transform="matrix(0.7071 -0.7071 0.7071 0.7071 -116.8031 294.3521)" class="st1" cx="296.9" cy="288.2" rx="77.8" ry="77.8"/>
		<g id="XMLID_43_">
			<path class="st1" d="M419.1,434.1c-2.3,2.1-4.6,4.2-6.9,6.2c-16.4,14-34.6,25.9-54.2,35.3C325.3,491.2,288.7,500,250,500
				c-29.5,0-57.9-5.1-84.2-14.5c-21.6-7.7-41.9-18.4-60.3-31.4c-0.2-0.1-0.4-0.3-0.5-0.4c-0.2-0.2-0.4-0.3-0.6-0.5
				c-2.2-1.6-4.5-3.2-6.6-4.9c-2.6-2-5.1-4-7.6-6c5.6-9.5,14.5-22.4,28.5-39.1c25.5-30.4,63.3-32.3,82.8-30.8c0.2,0,0.4,0,0.6,0
				c3.6,0.3,6.5,0.7,8.6,1c2.2,0.3,3.5,0.6,3.5,0.6s0-3.7,64.2-5.7c7.7-0.2,16.3-0.4,25.9-0.6C365.8,366.5,402.2,407.8,419.1,434.1z
				"/>
			<path id="XMLID_48_" class="st2" d="M269.1,202.6c0,0-11.6-79.7-76.8-82.6c-65.2-2.9-89.9,102.9-60.9,165.2
				c29,62.3,78.3,44.9,78.3,44.9l-10.5,58.1l0,0c24.7,11.5,53.7,9.1,76.1-6.4l3.6-2.5L269.1,202.6z"/>
			<path id="XMLID_47_" class="st1" d="M246.2,303.3c0,0,9.2,48.3-46.1,76l9.6-49.1C209.7,330.1,233.8,318,246.2,303.3z"/>
			<path id="XMLID_44_" class="st2" d="M247.5,187.2c0,0,20.7-17.6,38.8-8.1c18.1,9.6,9.3,53.9,0,63
				C277,251.2,241,231.6,247.5,187.2z"/>
		</g>
		<path id="XMLID_36_" class="st1" d="M113.2,194.4c0,0,58.7,9.4,110.2-25.2c0,0,6.2,45,39.2,47.1c0,0-0.5-35.2,23.7-37.1
			c0,0-3.9-105-83.5-93.2C202.9,86,109.6,74.7,113.2,194.4z"/>
		<ellipse id="XMLID_84_" class="st1" cx="134.3" cy="204.8" rx="6.5" ry="11.5"/>
		<ellipse id="XMLID_92_" class="st1" cx="179.3" cy="204.8" rx="6.5" ry="11.5"/>
		<path id="XMLID_90_" class="st3" d="M268.7,198.3c0,0,3.7-12.2,15.8-5.6c12.2,6.7,1.2,36.7-5.4,37.2c-6.6,0.6-6.4-5.8-5.1-11.2
			c1.3-5.3-0.2-10.7-6.2-8.4L268.7,198.3z"/>
		<polyline id="XMLID_214_" class="st4" points="154,210.3 148.1,257.6 175.6,254.6 		"/>
		<path id="XMLID_216_" class="st5" d="M151.1,267.3c0,0,20,9.8,36.1-5.6c16.1-15.4,21.3-0.3,19.7,11.1
			c-1.7,11.4-6.1,32.2-36.1,29.1C140.8,298.9,136.7,270.7,151.1,267.3z"/>
		<path id="XMLID_218_" class="st6" d="M155.8,297.5c0,0,3.9-11.9,21.4-15.1s25.2,5.8,25.2,5.8s-4.3,12.4-21.7,13.9
			C180.7,302.1,166.3,303.3,155.8,297.5z"/>
		<path id="XMLID_219_" class="st7" d="M179.3,87.4c0,0,74.2,10.8,86.6,109.6c0,0,30.4-50.9-7.6-93.8
			C258.3,103.2,238.5,71.6,179.3,87.4z"/>
		<circle id="XMLID_217_" class="st7" cx="283.4" cy="247.1" r="9.6"/>
	</g>
</g>
</svg>
