<?xml version="1.0" encoding="utf-8"?>
<!-- Generator: Adobe Illustrator 23.0.1, SVG Export Plug-In . SVG Version: 6.00 Build 0)  -->
<svg version="1.1" id="Layer_1" xmlns="http://www.w3.org/2000/svg" xmlns:xlink="http://www.w3.org/1999/xlink" x="0px" y="0px"
	 viewBox="0 0 500 500" style="enable-background:new 0 0 500 500;" xml:space="preserve">
<style type="text/css">
	.st0{fill:#FFFFFF;}
	.st1{fill:#000063;}
	.st2{fill:#FFB2A8;}
	.st3{fill:none;stroke:#000063;stroke-width:2.1516;stroke-miterlimit:10;}
	.st4{fill:#FF8080;}
	.st5{fill:#FF7272;}
	.st6{fill:#2BCFEB;}
</style>
<g>
	<path class="st0" d="M500,250c0,64.9-24.7,124-65.3,168.5c-0.7,0.8-1.4,1.5-2,2.2c-0.2,0.2-0.4,0.4-0.6,0.6
		c-21,22.4-46.1,40.8-74.1,54.2C325.3,491.2,288.7,500,250,500c-29.5,0-57.9-5.1-84.2-14.5c-21.6-7.7-41.9-18.4-60.3-31.4
		c-0.2-0.1-0.4-0.3-0.5-0.4c-0.2-0.2-0.4-0.3-0.6-0.5C41.2,407.8,0,333.7,0,250C0,111.9,111.9,0,250,0S500,111.9,500,250z"/>
	<g id="XMLID_162_">
		<g id="XMLID_24_">
			<path class="st1" d="M434.7,418.5c-0.7,0.8-1.4,1.5-2,2.2c-0.2,0.2-0.4,0.4-0.6,0.6c-21,22.4-46.1,40.8-74.1,54.2
				C325.3,491.2,288.7,500,250,500c-29.5,0-57.9-5.1-84.2-14.5c-21.6-7.7-41.9-18.4-60.3-31.4c2.9-7.8,11.5-25.5,36.6-55.4
				c6-7.2,12.7-12.8,19.7-17.1c0,0,0.2-0.2,0.7-0.4c0.1-0.1,0.2-0.1,0.4-0.2c4.1-2.5,8.3-4.5,12.5-6.2c0.5-0.2,1-0.4,1.6-0.6
				c4.6-1.7,9.3-3.1,13.8-4c0,0,0.1,0,0.1,0c13.2-2.9,25.4-2.9,34-2.2c0.2,0,0.4,0,0.6,0c3.6,0.3,6.5,0.7,8.6,1
				c2.2,0.3,3.5,0.6,3.5,0.6s0-3.7,64.1-5.7c6.6-0.2,13.9-0.4,22-0.5c0.8,0,1.6,0,2.5-0.1c0.1,0,0.1,0,0.2,0c0.4,0,0.8,0,1.3,0
				c9.4-0.2,18.2,0.6,26.4,2.3h0c3.4,0.6,6.7,1.4,9.9,2.4C397.2,377.2,420.3,399.4,434.7,418.5z"/>
			<path id="XMLID_29_" class="st2" d="M292.6,198.2c0,0-11.6-79.7-76.8-82.6c-65.2-2.9-89.8,102.9-60.8,165.2s78.2,44.9,78.2,44.9
				l-10.5,58l0,0c24.7,11.5,53.7,9.1,76.1-6.4l3.6-2.5L292.6,198.2z"/>
			<path id="XMLID_28_" class="st1" d="M269.6,298.8c0,0,9.2,48.3-46.1,76l9.6-49.1C233.2,325.7,257.3,313.5,269.6,298.8z"/>
			<path id="XMLID_25_" class="st2" d="M271,182.8c0,0,20.7-17.6,38.8-8.1c18.1,9.6,9.3,53.9,0,63S264.5,227.1,271,182.8z"/>
		</g>
		<polyline id="XMLID_145_" class="st3" points="190.3,187.5 185.5,226.3 208.7,232.2 		"/>
		<g id="XMLID_129_">
			<ellipse id="XMLID_144_" class="st1" cx="167" cy="192.7" rx="6.2" ry="12.9"/>
			<ellipse id="XMLID_143_" class="st1" cx="218.5" cy="192.7" rx="6.2" ry="12.9"/>
		</g>
		<path id="XMLID_161_" class="st4" d="M292.2,192.2c0,0,3.7-12.2,15.8-5.6c12.2,6.7,1.2,36.7-5.4,37.2c-6.6,0.6-6.4-5.8-5.1-11.2
			c1.3-5.3-0.2-10.7-6.2-8.4L292.2,192.2z"/>
		<path id="XMLID_160_" class="st0" d="M168.6,267.6c0,0,3.4,20.6,30.4,19.8c27-0.9,25.8-27.3,25.8-27.3l-15.6-3.4l-17.8,2.2
			L168.6,267.6z"/>
		<g id="XMLID_103_">
			<path id="XMLID_108_" class="st1" d="M184.2,236.8c0,0-18.2-3.6-25.3,11.3c0,0-12.5-6-19.1-3c-6.5,3-8-13.4-8-13.4
				s-17,31.9,10.4,40.8s52.7-13.1,52.7-13.1S204.2,239.2,184.2,236.8z"/>
			<path id="XMLID_109_" class="st1" d="M205.6,236.8c0,0,18.2-3.6,25.3,11.3c0,0,12.5-6,19.1-3c6.5,3,8-13.4,8-13.4
				s17,31.9-10.4,40.8c-27.4,8.9-52.7-13.1-52.7-13.1S185.6,239.2,205.6,236.8z"/>
		</g>
		<circle id="XMLID_26_" class="st5" cx="256.2" cy="167.1" r="3.3"/>
		<path id="XMLID_40_" class="st5" d="M272.3,171.9c0,1.5-1.2,2.7-2.7,2.7s-2.7-1.2-2.7-2.7c0-1.5,1.2-2.7,2.7-2.7
			S272.3,170.4,272.3,171.9z"/>
		<path id="XMLID_41_" class="st5" d="M275.6,159.3c0,1.5-1.2,2.7-2.7,2.7c-1.5,0-2.7-1.2-2.7-2.7c0-1.5,1.2-2.7,2.7-2.7
			C274.4,156.6,275.6,157.8,275.6,159.3z"/>
		<path class="st6" d="M357.9,475.6C325.3,491.2,288.7,500,250,500c-29.5,0-57.9-5.1-84.2-14.5c4.7-38.1,6.1-79.5-4-104
			c0,0,0.2-0.2,0.7-0.4c1.8-1,6.8-3.8,12.8-6.4c0.5-0.2,1-0.4,1.6-0.6c4.4-1.8,9.2-3.3,13.8-4c0,0,0.1,0,0.1,0
			c0,0,17.8,32.7,72.3,32.7c52.8,0,58.9-37.1,60.6-39.4c0.1-0.1,0.1-0.1,0.2-0.1c0.2,0,1,0,2.3,0c0.1,0,0.1,0,0.2,0
			c5.2,0.1,17.3,0.5,27.7,2.2h0c3.7,0.6,7.1,1.4,9.9,2.4C364,367.7,357.9,424.3,357.9,475.6z"/>
		<circle id="XMLID_37_" class="st1" cx="161.1" cy="198.2" r="24.4"/>
		<circle id="XMLID_163_" class="st1" cx="218.5" cy="198.2" r="24.4"/>
		<line id="XMLID_164_" class="st3" x1="285" y1="174.6" x2="240.4" y2="187.5"/>
		<line id="XMLID_166_" class="st3" x1="171.9" y1="178.7" x2="208.7" y2="178"/>
	</g>
</g>
</svg>
