<?xml version="1.0" encoding="utf-8"?>
<!-- Generator: Adobe Illustrator 23.0.1, SVG Export Plug-In . SVG Version: 6.00 Build 0)  -->
<svg version="1.1" id="Layer_1" xmlns="http://www.w3.org/2000/svg" xmlns:xlink="http://www.w3.org/1999/xlink" x="0px" y="0px"
	 viewBox="0 0 500 500" style="enable-background:new 0 0 500 500;" xml:space="preserve">
<style type="text/css">
	.st0{fill:#FFFFFF;}
	.st1{fill:#000063;}
	.st2{fill:#FFB13E;}
	.st3{fill:#FFB2A8;}
	.st4{fill:none;stroke:#000063;stroke-width:2.1516;stroke-miterlimit:10;}
	.st5{fill:#FF8080;}
	.st6{fill:#FF7379;}
</style>
<g>
	<path class="st0" d="M500,250c0,66-25.6,126-67.3,170.7c-0.2,0.2-0.4,0.4-0.6,0.6C386.5,469.7,321.8,500,250,500
		c-54,0-104.1-17.2-145-46.4c-0.2-0.2-0.4-0.3-0.6-0.5C41.2,407.8,0,333.7,0,250C0,111.9,111.9,0,250,0S500,111.9,500,250z"/>
	<g id="XMLID_101_">
		
			<ellipse id="XMLID_96_" transform="matrix(0.7071 -0.7071 0.7071 0.7071 -91.286 183.2344)" class="st1" cx="175.5" cy="201.8" rx="62.9" ry="62.9"/>
		<circle id="XMLID_102_" class="st1" cx="175.6" cy="282.3" r="62.9"/>
		
			<ellipse id="XMLID_104_" transform="matrix(0.1617 -0.9868 0.9868 0.1617 -165.0924 508.4798)" class="st1" cx="216.7" cy="351.4" rx="62.9" ry="62.9"/>
		<ellipse id="XMLID_94_" class="st1" cx="288.6" cy="189" rx="50.2" ry="50.2"/>
		
			<ellipse id="XMLID_97_" transform="matrix(0.7071 -0.7071 0.7071 0.7071 -96.5112 279.0591)" class="st1" cx="288.6" cy="256" rx="68.9" ry="68.9"/>
		
			<ellipse id="XMLID_98_" transform="matrix(0.7071 -0.7071 0.7071 0.7071 -150.1227 316.8062)" class="st1" cx="307.4" cy="339.6" rx="68.9" ry="68.9"/>
		<path class="st2" d="M432.1,421.3C386.5,469.7,321.8,500,250,500c-54,0-104.1-17.2-145-46.4c-0.2-0.2-0.4-0.3-0.6-0.5
			c4-9.1,13.4-25.8,35.1-51.8c35.7-42.6,95.5-29.2,95.5-29.2s0-4.7,90.1-6.3C378.4,365,412.9,395.9,432.1,421.3z"/>
		<path id="XMLID_87_" class="st3" d="M289.9,201c0,0-11.6-79.7-76.8-82.6s-89.8,102.9-60.8,165.2s78.2,44.9,78.2,44.9l-10.5,58l0,0
			c24.7,11.5,53.7,9.1,76.1-6.4l3.6-2.5L289.9,201z"/>
		<path id="XMLID_86_" class="st1" d="M267,301.6c0,0,9.2,48.3-46.1,76l9.6-49.1C230.5,328.5,254.6,316.3,267,301.6z"/>
		<path id="XMLID_83_" class="st3" d="M268.3,185.6c0,0,20.7-17.6,38.8-8.1c18.1,9.6,9.3,53.9,0,63
			C297.8,249.6,261.8,229.9,268.3,185.6z"/>
		<polyline id="XMLID_114_" class="st4" points="180.2,186.4 177.1,245.5 200.3,251.5 		"/>
		<ellipse id="XMLID_113_" class="st1" cx="157.3" cy="213.8" rx="6.2" ry="12.9"/>
		<ellipse id="XMLID_112_" class="st1" cx="200.3" cy="213.8" rx="6.2" ry="12.9"/>
		<path id="XMLID_34_" class="st1" d="M245.7,148.2c0,0,3.8,13.5,23.6,12c0,0,13.5,5.2,13.5,15.4c0,0,5.1-67.1-40.2-55.4
			c0,0-15.3-37.1-55.5-30s-41.2,44.8-31.5,66.7c0,0,23.9-16.3,42.2,3.6C216.2,180.2,242.6,167.5,245.7,148.2z"/>
		<path id="XMLID_22_" class="st5" d="M289.5,196.6c0,0,3.7-12.2,15.8-5.6c12.2,6.7,1.2,36.7-5.4,37.2c-6.6,0.6-6.4-5.8-5.1-11.2
			c1.3-5.3-0.2-10.7-6.2-8.4"/>
		<path id="XMLID_99_" class="st1" d="M197.8,160.4c0,0,17.8,35.6,51.9,48.3c34,12.7,54.9-1.8,61-33.1c6.1-31.3-56.5-33.3-56.5-33.3
			l-20.4-3.4L197.8,160.4z"/>
		<path id="XMLID_100_" class="st6" d="M201.8,286.2l4.9-14.3l7.3,1.2l2.7-8.4l12.8,5c0,0,2.4,15.9-6.8,20.7
			C213.6,295.2,201.8,286.2,201.8,286.2z"/>
		<path id="XMLID_111_" class="st4" d="M188.7,286.5c0,0,30.7,4.6,43.9-21.8"/>
		<ellipse id="XMLID_105_" class="st5" cx="229.2" cy="247.6" rx="13.4" ry="8.4"/>
		<ellipse id="XMLID_107_" class="st5" cx="162.2" cy="253.5" rx="13.4" ry="8.4"/>
		<path id="XMLID_106_" class="st0" d="M316.9,247.7c0,7.8-6.3,14.2-14.2,14.2c-7.8,0-14.2-6.3-14.2-14.2c0-7.8,6.3-14.2,14.2-14.2
			C310.6,233.6,316.9,239.9,316.9,247.7z"/>
		<path id="XMLID_88_" class="st4" d="M145.9,196.4c0,0,6.1-9.9,19.4-5.6"/>
		<path id="XMLID_89_" class="st4" d="M213.6,196.4c0,0-6.1-9.9-19.4-5.6"/>
	</g>
</g>
</svg>
