<?xml version="1.0" encoding="utf-8"?>
<!-- Generator: Adobe Illustrator 23.0.1, SVG Export Plug-In . SVG Version: 6.00 Build 0)  -->
<svg version="1.1" id="Layer_1" xmlns="http://www.w3.org/2000/svg" xmlns:xlink="http://www.w3.org/1999/xlink" x="0px" y="0px"
	 viewBox="0 0 500 500" style="enable-background:new 0 0 500 500;" xml:space="preserve">
<style type="text/css">
	.st0{fill:#FFFFFF;}
	.st1{fill:#00CCBE;}
	.st2{fill:#00CCBE;stroke:#FFFFFF;stroke-width:2.1516;stroke-miterlimit:10;}
	.st3{fill:#FFB2A8;}
	.st4{fill:#000063;}
	.st5{fill:none;stroke:#000063;stroke-width:2.1516;stroke-miterlimit:10;}
	.st6{fill:#FF8080;}
</style>
<g>
	<path class="st0" d="M500,250c0,66-25.6,126-67.3,170.7C387,469.5,322.1,500,250,500c-54,0-104.1-17.2-145-46.4
		C41.4,408.3,0,334,0,250C0,111.9,111.9,0,250,0S500,111.9,500,250z"/>
	<g id="XMLID_82_">
		<path class="st1" d="M432.7,420.7C387,469.5,322.1,500,250,500c-54,0-104.1-17.2-145-46.4c3.8-8.9,13.1-25.8,35.4-52.5
			c20.6-24.6,49.2-30.5,69.7-31.1l0.3,0c4.8-0.1,9.1,0,12.7,0.3c0.2,0,0.4,0,0.6,0c3.6,0.3,6.5,0.7,8.6,1c2.2,0.3,3.5,0.6,3.5,0.6
			s0-2,25.8-3.9c9.1-0.7,21.5-1.3,38.3-1.8c7.7-0.2,16.3-0.4,25.9-0.6C379,364.7,413.4,395.4,432.7,420.7z"/>
		<path id="XMLID_78_" class="st2" d="M210.1,370.1c0,0-5.9,38.5,52.3,38.5c58.3,0,63.5-42.9,63.5-42.9"/>
		<path id="XMLID_1_" class="st3" d="M290.8,200.7c0,0-11.6-79.7-76.8-82.6c-65.2-2.9-89.8,102.9-60.8,165.2s78.2,44.9,78.2,44.9
			l-10.5,58l0,0c24.7,11.5,53.7,9.1,76.1-6.4l3.6-2.5L290.8,200.7z"/>
		<path id="XMLID_4_" class="st4" d="M267.9,301.4c0,0,9.2,48.3-46.1,76l9.6-49.1C231.4,328.3,255.5,316.1,267.9,301.4z"/>
		<path id="XMLID_7_" class="st3" d="M269.3,185.4c0,0,20.7-17.6,38.8-8.1c18.1,9.6,9.3,53.9,0,63
			C298.8,249.4,262.7,229.7,269.3,185.4z"/>
		<path id="XMLID_61_" class="st4" d="M274.4,156.3c0,0-25.4-19.5-53.5-0.3c-28.1,19.2-83,5.9-91.9-37.8s28.1-56.7,45.9-32.7
			c17.8,24,28.1-36.1,58.9-11.9c30.8,24.2,59.5,5.5,69.3,44.6C307.8,136.7,305.5,152.1,274.4,156.3z"/>
		<path id="XMLID_66_" class="st5" d="M156.3,151.2c0,0-37.7-22.6-27.4-62.7c3.1-12.1,13.9-21,26.4-21c10.6,0.1,22.7,6.2,30.4,29.3"
			/>
		<path id="XMLID_65_" class="st5" d="M273.3,154.5c0,0,34.9-0.5,35.2-31.7c0.2-31.8-31-46-54.2-31.4"/>
		<polyline id="XMLID_67_" class="st5" points="181.5,186.2 178.4,245.3 201.6,251.2 		"/>
		<ellipse id="XMLID_68_" class="st4" cx="158.6" cy="213.6" rx="6.2" ry="12.9"/>
		<ellipse id="XMLID_75_" class="st4" cx="210.1" cy="213.6" rx="6.2" ry="12.9"/>
		<path id="XMLID_72_" class="st5" d="M190,286.3c0,0,30.7,4.6,43.9-21.8"/>
		<path id="XMLID_76_" class="st6" d="M290.2,194.7c0,0,3.7-12.2,15.8-5.6c12.2,6.7,1.2,36.7-5.4,37.2c-6.6,0.6-6.4-5.8-5.1-11.2
			c1.3-5.3-0.2-10.7-6.2-8.4L290.2,194.7z"/>
		<ellipse id="XMLID_77_" class="st5" cx="210.1" cy="215.9" rx="20.2" ry="26.6"/>
		<ellipse id="XMLID_79_" class="st5" cx="152.4" cy="214" rx="20.2" ry="26.6"/>
		<line id="XMLID_80_" class="st5" x1="166.7" y1="195.2" x2="197.5" y2="195.2"/>
		<line id="XMLID_81_" class="st5" x1="284.3" y1="176.8" x2="227.4" y2="202.2"/>
	</g>
</g>
</svg>
