<?xml version="1.0" encoding="utf-8"?>
<!-- Generator: Adobe Illustrator 23.0.1, SVG Export Plug-In . SVG Version: 6.00 Build 0)  -->
<svg version="1.1" id="Layer_1" xmlns="http://www.w3.org/2000/svg" xmlns:xlink="http://www.w3.org/1999/xlink" x="0px" y="0px"
	 viewBox="0 0 500 500" style="enable-background:new 0 0 500 500;" xml:space="preserve">
<style type="text/css">
	.st0{fill:#FFFFFF;}
	.st1{fill:#000063;}
	.st2{fill:#FF5678;}
	.st3{fill:#E48461;}
	.st4{fill:none;stroke:#000063;stroke-width:2.1516;stroke-miterlimit:10;}
	.st5{fill:none;stroke:#000063;stroke-width:4.3033;stroke-miterlimit:10;}
	.st6{fill:none;stroke:#FFFFFF;stroke-width:2.1516;stroke-miterlimit:10;}
	.st7{opacity:0.53;fill:#FF8080;enable-background:new    ;}
</style>
<g>
	<path class="st0" d="M500,250c0,64.9-24.7,124-65.3,168.5c-0.7,0.8-1.4,1.5-2,2.2c-0.2,0.2-0.4,0.4-0.6,0.6
		c-6.3,6.7-12.9,13-19.9,19c-16.4,14-34.6,25.9-54.2,35.3C325.3,491.2,288.7,500,250,500c-29.5,0-57.9-5.1-84.2-14.5
		c-21.6-7.7-41.9-18.4-60.3-31.4c-0.2-0.1-0.4-0.3-0.5-0.4c-0.2-0.2-0.4-0.3-0.6-0.5c-2.2-1.6-4.5-3.2-6.6-4.9
		C38.3,402.6,0,330.8,0,250C0,111.9,111.9,0,250,0S500,111.9,500,250z"/>
	<g id="XMLID_202_">
		<ellipse id="XMLID_54_" class="st1" cx="131.7" cy="144" rx="25" ry="25"/>
		
			<ellipse id="XMLID_58_" transform="matrix(0.1608 -0.987 0.987 0.1608 26.5226 269.3966)" class="st1" cx="171.7" cy="119.1" rx="25" ry="25"/>
		<circle id="XMLID_59_" class="st1" cx="221.6" cy="124.4" r="25"/>
		
			<ellipse id="XMLID_167_" transform="matrix(0.9227 -0.3856 0.3856 0.9227 -34.7821 114.6346)" class="st1" cx="268.4" cy="144" rx="25" ry="25"/>
		
			<ellipse id="XMLID_169_" transform="matrix(0.9239 -0.3827 0.3827 0.9239 -44.7786 123.5401)" class="st1" cx="288.1" cy="174.3" rx="25" ry="25"/>
		
			<ellipse id="XMLID_170_" transform="matrix(0.1608 -0.987 0.987 0.1608 8.6098 469.7612)" class="st1" cx="280.5" cy="229.8" rx="25" ry="25"/>
		<ellipse id="XMLID_171_" class="st1" cx="270.5" cy="266.9" rx="25" ry="25"/>
		<ellipse id="XMLID_177_" class="st1" cx="131.7" cy="212.3" rx="25" ry="25"/>
		<ellipse id="XMLID_181_" class="st1" cx="131.7" cy="174.3" rx="25" ry="25"/>
		<circle id="XMLID_182_" class="st1" cx="178.9" cy="134.7" r="25"/>
		<ellipse id="XMLID_183_" class="st1" cx="154" cy="140.8" rx="25" ry="25"/>
		<ellipse id="XMLID_184_" class="st1" cx="221.6" cy="144.1" rx="25" ry="25"/>
		
			<ellipse id="XMLID_185_" transform="matrix(0.3816 -0.9243 0.9243 0.3816 -3.1229 344.0008)" class="st1" cx="255.5" cy="174.3" rx="25" ry="25"/>
		<circle id="XMLID_186_" class="st1" cx="270.4" cy="192.5" r="25"/>
		
			<ellipse id="XMLID_187_" transform="matrix(0.8206 -0.5714 0.5714 0.8206 -39.5962 161.9341)" class="st1" cx="238.2" cy="144" rx="25" ry="25"/>
		<circle id="XMLID_188_" class="st1" cx="203.4" cy="128.6" r="25"/>
		<g id="XMLID_52_">
			<path class="st2" d="M412.1,440.3c-16.4,14-34.6,25.9-54.2,35.3C325.3,491.2,288.7,500,250,500c-29.5,0-57.9-5.1-84.2-14.5
				c-21.6-7.7-41.9-18.4-60.3-31.4c-0.2-0.1-0.4-0.3-0.5-0.4c-0.2-0.2-0.4-0.3-0.6-0.5c-2.2-1.6-4.5-3.2-6.6-4.9
				c3.5-8.2,12-23.6,32.5-48.1c13-15.5,29.4-22.9,44.5-26.1c12.1-2.6,23.3-2.6,31.3-2.1c0.2,0,0.4,0,0.6,0c3.3,0.3,5.9,0.6,7.8,0.9
				c2.1,0.3,3.2,0.6,3.2,0.6s0-3.4,58.8-5.2c7-0.2,14.9-0.4,23.8-0.6c14-0.3,26.6,1.9,37.8,5.6C380.4,387.4,403.7,424.3,412.1,440.3
				z"/>
			<path id="XMLID_57_" class="st3" d="M268,216.5c0,0-10.6-73-70.3-75.7c-59.7-2.6-82.3,94.2-55.7,151.3s71.7,41.1,71.7,41.1
				l-9.7,53.1l0,0c22.7,10.5,49.2,8.3,69.8-5.9l3.3-2.3L268,216.5z"/>
			<path id="XMLID_56_" class="st1" d="M247,308.7c0,0,8.5,44.3-42.2,69.6l8.8-45C213.6,333.3,235.6,322.2,247,308.7z"/>
			<path id="XMLID_53_" class="st3" d="M248.2,202.5c0,0,18.9-16.2,35.5-7.4c16.6,8.8,8.5,49.4,0,57.7
				C275.2,261.1,242.2,243.1,248.2,202.5z"/>
		</g>
		<ellipse id="XMLID_189_" class="st1" cx="174.2" cy="153.6" rx="25" ry="25"/>
		
			<ellipse id="XMLID_190_" transform="matrix(0.9227 -0.3854 0.3854 0.9227 -39.0458 93.2909)" class="st1" cx="213.2" cy="144" rx="25" ry="25"/>
		<circle id="XMLID_191_" class="st1" cx="228.1" cy="158.3" r="20.2"/>
		<circle id="XMLID_192_" class="st1" cx="263.1" cy="165.8" r="20.2"/>
		
			<ellipse id="XMLID_193_" transform="matrix(0.1602 -0.9871 0.9871 0.1602 15.7792 407.6933)" class="st1" cx="247.5" cy="194.6" rx="20.2" ry="20.2"/>
		<circle id="XMLID_194_" class="st1" cx="238.2" cy="174.3" r="20.2"/>
		<circle id="XMLID_195_" class="st1" cx="143.6" cy="169" r="20.2"/>
		<polyline id="XMLID_196_" class="st4" points="163.8,204.8 156.7,254.8 184.8,250.4 184.8,242 		"/>
		<path id="XMLID_197_" class="st5" d="M179.2,222.7c0,0,8.2-22.7,32.9-6.7"/>
		<path id="XMLID_198_" class="st5" d="M129.3,227.9c0,0,6.9-19,27.7-5.7"/>
		<path id="XMLID_55_" class="st0" d="M163.8,272.7c0,0,24.4,7.8,40.1-12.4c15.7-20.2,24.2-3.9,24.2,9.3s-1.5,37.6-36.1,39.2
			C157.5,310.3,148,278.9,163.8,272.7z"/>
		<path id="XMLID_199_" class="st6" d="M174.7,374c0,0,6.5,38,59.2,38s66.2-44.3,66.2-44.3"/>
		<path id="XMLID_201_" class="st6" d="M148,389.8c0,0,0.7,44.2,84.7,44.2s105.3-60.7,105.3-60.7"/>
		<path id="XMLID_200_" class="st7" d="M267.6,211.7c0,0,3.3-11.2,14.5-5.1c11.1,6.1,1.1,33.6-4.9,34.1c-6,0.5-5.9-5.3-4.7-10.2
			c1.2-4.9-0.2-9.8-5.7-7.7L267.6,211.7z"/>
	</g>
</g>
</svg>
