<?xml version="1.0" encoding="utf-8"?>
<!-- Generator: Adobe Illustrator 23.0.1, SVG Export Plug-In . SVG Version: 6.00 Build 0)  -->
<svg version="1.1" id="Layer_1" xmlns="http://www.w3.org/2000/svg" xmlns:xlink="http://www.w3.org/1999/xlink" x="0px" y="0px"
	 viewBox="0 0 500 500" style="enable-background:new 0 0 500 500;" xml:space="preserve">
<style type="text/css">
	.st0{fill:#FFFFFF;}
	.st1{clip-path:url(#SVGID_2_);}
	.st2{fill:#3E2ABE;}
	.st3{fill:#F95959;}
</style>
<g>
	<path class="st0" d="M500,250c0,64.9-24.7,124-65.3,168.5c-0.7,0.8-1.4,1.5-2,2.2c-0.2,0.2-0.4,0.4-0.6,0.6
		c-4.2,4.4-8.5,8.7-13,12.8c-2.3,2.1-4.6,4.2-6.9,6.2c-16.4,14-34.6,25.9-54.2,35.3C325.3,491.2,288.7,500,250,500
		c-29.5,0-57.9-5.1-84.2-14.5c-21.6-7.7-41.9-18.4-60.3-31.4c-0.2-0.1-0.4-0.3-0.5-0.4c-0.2-0.2-0.4-0.3-0.6-0.5
		c-2.2-1.6-4.5-3.2-6.6-4.9c-2.6-2-5.1-4-7.6-6C35.1,396.4,0,327.3,0,250C0,111.9,111.9,0,250,0S500,111.9,500,250z"/>
	<g>
		<g>
			<defs>
				<path id="SVGID_1_" d="M500,250c0,64.9-24.7,124-65.3,168.5c-0.7,0.8-1.4,1.5-2,2.2c-0.2,0.2-0.4,0.4-0.6,0.6
					c-4.2,4.4-8.5,8.7-13,12.8c-2.3,2.1-4.6,4.2-6.9,6.2c-16.4,14-34.6,25.9-54.2,35.3C325.3,491.2,288.7,500,250,500
					c-29.5,0-57.9-5.1-84.2-14.5c-21.6-7.7-41.9-18.4-60.3-31.4c-0.2-0.1-0.4-0.3-0.5-0.4c-0.2-0.2-0.4-0.3-0.6-0.5
					c-2.2-1.6-4.5-3.2-6.6-4.9c-2.6-2-5.1-4-7.6-6C35.1,396.4,0,327.3,0,250C0,111.9,111.9,0,250,0S500,111.9,500,250z"/>
			</defs>
			<clipPath id="SVGID_2_">
				<use xlink:href="#SVGID_1_"  style="overflow:visible;"/>
			</clipPath>
			<g class="st1">
				<g>
					<path class="st2" d="M136.7,216.4c-2,45.9,25.6,99.6,74.9,106.7c28.7,4.1,56.9-0.3,75.4-23.8c20.2-25.6,18.3-56.4,19.4-87.2
						c0.1-1.8-2.7-1.8-2.8,0c-1,28,1.3,57.8-15.9,81.7c-7.7,10.7-17.1,20.3-30.2,24.2c-14.7,4.4-33.4,4.7-48.5,1.9
						c-46.3-8.7-71.5-59.9-69.6-103.5C139.6,214.6,136.8,214.6,136.7,216.4L136.7,216.4z"/>
				</g>
				<g>
					<path class="st2" d="M139,234.7c-10.5-4.1-25.1,2.7-23.9,15.4c0.5,5.7,5,9.8,10.1,11.9c7.8,3.2,14.3,0.3,18.4-6.8
						c0.9-1.5-1.5-2.9-2.4-1.4c-3.9,6.8-10.2,8.5-17.1,4.6c-4.1-2.3-6.9-6.3-6.1-11.1c1.6-9.5,12.2-12.9,20.3-9.8
						C139.9,238,140.7,235.3,139,234.7L139,234.7z"/>
				</g>
				<g>
					<path class="st2" d="M140.4,246.4c-3.7,0.6-7.2,2.2-10.8,3.2c-1.7,0.5-1,3.2,0.7,2.7c3.6-1.1,7.1-2.6,10.8-3.2
						C142.9,248.8,142.2,246.1,140.4,246.4L140.4,246.4z"/>
				</g>
				<g>
					<path class="st2" d="M139,246.9c-3.8-1.2-7.1-3.3-10.5-5.3c-1.5-0.9-2.9,1.5-1.4,2.4c3.6,2.1,7.1,4.3,11.1,5.6
						C140,250.2,140.7,247.5,139,246.9L139,246.9z"/>
				</g>
				<g>
					<path class="st2" d="M303.5,243.9c7.5,7.4,22.3,3.7,24-7.2c2-12.7-13.5-17.3-22.7-11.7c-1.5,0.9-0.1,3.3,1.4,2.4
						c7.1-4.3,20.3-1.5,18.5,8.9c-1.5,8.7-13.3,11.5-19.3,5.6C304.2,240.6,302.3,242.6,303.5,243.9L303.5,243.9z"/>
				</g>
				<g>
					<path class="st2" d="M306.6,235.8c2.3-2.2,5.1-3.5,8-4.5c1.7-0.6,1-3.3-0.7-2.7c-3.4,1.2-6.6,2.7-9.3,5.2
						C303.3,235,305.3,237,306.6,235.8L306.6,235.8z"/>
				</g>
				<g>
					<path class="st2" d="M305.2,237.2c2.3,0.6,4.5,1.5,6.7,2.6c1.6,0.8,3-1.6,1.4-2.4c-2.4-1.2-4.8-2.2-7.4-2.8
						C304.2,234.1,303.5,236.7,305.2,237.2L305.2,237.2z"/>
				</g>
				<path class="st3" d="M137.6,234.8c-11.3-5.9-24.9-7-36.8-14.1c-8.6-4.9-22.7-13.5-17.8-25.4c5.4-11.9,20.5-7,28.6-14.1
					c-7.6-9.7-33-24.9-13.5-37.8c12.4-8.1,28.6,1.1,41.1,1.6c3.2-11.3-13.5-29.7-1.1-41.1c13.5-11.9,31.9,12.4,43.8,15.1
					c8.6-14.6,10.8-34,30.8-39.4c21.6-5.4,21.6,21.6,32.4,33.5c10.3-10.3,31.9-34,44.8-13c4.3,7.6,0.5,16.7,3.8,23.8
					c4.3,9.2,8.1,2.7,15.7-1.6c11.9-5.4,41.1-6.5,34,14.1c-2.2,5.4-15.1,15.1-14.1,20.5c1.1,6.5,14.1,2.2,19.5,2.7
					c11.3,1.1,20,9.7,14.1,21.1c-4.9,8.1-15.1,13-22.7,16.7c-10.8,5.4-35.1,20.8-38.4,34.9c-0.5-13-2.2-26.2-13.5-28.9
					c-10.3-2.2-22.2-8.6-23.8-20c-17.3,20.5-41.1-0.5-41.1-17.3c-9.2,26.5-31.3,14.6-48.1,5.9c-4.3,9.7-3.8,21.1-16.2,26.5
					c-7,3.2-11.3,1.8-18.4,0.2c-0.5,11.9,0,27.9,0,39.8"/>
				<path class="st3" d="M227.7,217.3c-1,8-3.1,15.4-5.2,23.3c-2.4,10-19.3,23.1-17.8,32c3,18.9,26.5,4,28.1-10.5
					c1.5-14.1-0.6-29-4.4-42C228.5,219,228.1,218.4,227.7,217.3"/>
				<path class="st2" d="M242.2,206.4c-0.6,11.9,5.6,10.3,14.4,9c11.6-1.6,20.9,3.1,31.6,4.6C294.6,202.6,251.8,202.4,242.2,206.4"
					/>
				<path class="st2" d="M204.4,204.8c1.4,11.8-4.8,10.7-13.7,10c-11.6-0.8-20.6,4.5-31.2,6.9C151.8,204.8,194.5,201.5,204.4,204.8"
					/>
				<g>
					<path class="st2" d="M182.9,251.9c-1.1-4.9-3.2-20.9,6-19.1c7.2,1.4,6.4,14,6.4,19.3c0,3.6,5.6,3.6,5.6,0c0-9.1-0.6-25-13.1-25
						c-13.1,0-12.1,17.5-10.2,26.3C178.3,256.8,183.7,255.4,182.9,251.9L182.9,251.9z"/>
				</g>
				<g>
					<path class="st2" d="M254.3,251.9c-1.1-4.9-3.2-20.9,6-19.1c7.2,1.4,6.4,14,6.4,19.3c0,3.6,5.6,3.6,5.6,0c0-9.1-0.6-25-13.1-25
						c-13.1,0-12.1,17.5-10.2,26.3C249.7,256.8,255,255.4,254.3,251.9L254.3,251.9z"/>
				</g>
				<g>
					<path class="st2" d="M220.4,297.7c6.6,2.6,13.2,0,18.1-4.7c1.3-1.2-0.7-3.2-2-2c-4.2,4-9.7,6.3-15.4,4
						C219.5,294.3,218.8,297.1,220.4,297.7L220.4,297.7z"/>
				</g>
				<g>
					<path class="st2" d="M186.1,218.1c-34.1,1.3-32.9,52.7,0.3,55.3c17.9,1.4,38.2-9,35.4-29.6c-2.5-17.9-19-28.3-36.1-25.7
						c-1.8,0.3-1,2.9,0.7,2.7c16.6-2.5,33.4,9.4,32.9,27.2c-0.6,18.7-22.1,25.5-37.7,21.9c-26.5-6-23-48.1,4.5-49.1
						C187.9,220.8,187.9,218,186.1,218.1L186.1,218.1z"/>
				</g>
				<g>
					<path class="st2" d="M256.4,218.1c-34.1,1.3-32.9,52.7,0.4,55.3c17.9,1.4,38.2-9,35.4-29.6c-2.5-17.9-19-28.3-36.1-25.7
						c-1.8,0.3-1,2.9,0.7,2.7c16.6-2.5,33.4,9.4,32.9,27.2c-0.6,18.7-22.1,25.5-37.7,21.9c-26.5-6-23-48.1,4.5-49.1
						C258.2,220.8,258.2,218,256.4,218.1L256.4,218.1z"/>
				</g>
				<g>
					<path class="st2" d="M222.8,247.1c2.5-2.3,5.7-3,8.6-0.9c1.4,1.1,2.8-1.3,1.4-2.4c-3.8-2.9-8.6-1.8-12,1.3
						C219.6,246.4,221.5,248.3,222.8,247.1L222.8,247.1z"/>
				</g>
				<g>
					<path class="st2" d="M210.2,322.3c-0.2,15.4-3,29.5-11.7,42.5c-0.4,0.6-0.1,1.5,0.5,1.9c15.6,9,36.2,6,52.4,0.2
						c0.9-0.3,1.2-1.2,0.8-2c-6.4-13.1-8.6-27.2-11.7-41.3c-0.4-1.7-3.1-1-2.7,0.7c2.6,11.9,5.3,23.5,8.9,35.1
						c0.9,2.9,2.4,3.9,0.4,6c-1.1,1.2-4.8,1.4-6.5,1.8c-6,1.4-12.3,2.2-18.5,2.2c-4.9,0-13.1,0.2-17.3-2.9c-3.4-2.5-2-2.4-0.4-5.9
						c0.9-2.1,2.1-4.1,3-6.2c4.2-10.2,5.4-21.1,5.6-32.1C213,320.5,210.2,320.5,210.2,322.3L210.2,322.3z"/>
				</g>
				<path class="st2" d="M208.9,342.6c-7.9,0.8-19.5,6-27.4,9.7c-5.8,3-17.3,9.7-14.4,19.5c2.2,6.7,14.4,8.2,20.2,11.2
					c-5,7.5-14.4,12-20.9,20.2c-5,6.7-9.4,15-13.7,23.2c-7.9,15-13.7,30-19.5,46.5c-2.2,6-7.9,15.7-6.5,22.5
					c2.2,9.7,15.9,13.5,25.2,18c20.9,9.7,36.8,20.2,60.5,22.5c36,3,79.2-4.5,110.2-24.7c5.8-3.7,15.1-7.5,20.9-12.7
					c7.2-6.7,5-10.5,1.4-21c-7.2-22.5-20.9-40.5-35.3-58.5c-11.5-15-28.1-32.2-46.8-39c13-9.7,31-24,7.2-36.7
					c-7.9-4.5-21.6-4.5-28.8-3.7"/>
				<g>
					<path class="st3" d="M180.4,420.5c1.9,1.9,3.9,3.9,5.8,5.8c1.3,1.3,3.2-0.7,2-2c-1.9-1.9-3.9-3.9-5.8-5.8
						C181,417.3,179.1,419.3,180.4,420.5L180.4,420.5z"/>
				</g>
				<g>
					<path class="st3" d="M218.5,393.4c-2.6,2.6-5.3,5.3-7.9,7.9c-1.3,1.3,0.7,3.2,2,2c2.6-2.6,5.3-5.3,7.9-7.9
						C221.8,394.1,219.8,392.1,218.5,393.4L218.5,393.4z"/>
				</g>
				<g>
					<path class="st3" d="M190.4,367.2c2.6,2.6,5.3,5.3,7.9,7.9c1.3,1.3,3.2-0.7,2-2c-2.6-2.6-5.3-5.3-7.9-7.9
						C191.1,364,189.2,366,190.4,367.2L190.4,367.2z"/>
				</g>
				<g>
					<path class="st3" d="M227.9,358.1c-1.4,1.4-2.9,2.9-4.3,4.3c-1.3,1.3,0.7,3.2,2,2c1.4-1.4,2.9-2.9,4.3-4.3
						C231.1,358.8,229.2,356.8,227.9,358.1L227.9,358.1z"/>
				</g>
				<g>
					<path class="st3" d="M255.3,356.6c-2.2,2.2-4.3,4.3-6.5,6.5c-1.3,1.3,0.7,3.2,2,2c2.2-2.2,4.3-4.3,6.5-6.5
						C258.5,357.3,256.5,355.3,255.3,356.6L255.3,356.6z"/>
				</g>
				<g>
					<path class="st3" d="M241.6,395.3c2.9,2.9,5.8,5.8,8.6,8.6c1.3,1.3,3.2-0.7,2-2c-2.9-2.9-5.8-5.8-8.6-8.6
						C242.3,392.1,240.3,394.1,241.6,395.3L241.6,395.3z"/>
				</g>
				<g>
					<path class="st3" d="M227.2,425.1c-3.6,3.6-7.2,7.2-10.8,10.8c-1.3,1.3,0.7,3.2,2,2c3.6-3.6,7.2-7.2,10.8-10.8
						C230.4,425.8,228.4,423.8,227.2,425.1L227.2,425.1z"/>
				</g>
				<g>
					<path class="st3" d="M260.3,433.5c2.4,2.4,4.8,4.8,7.2,7.2c1.3,1.3,3.2-0.7,2-2c-2.4-2.4-4.8-4.8-7.2-7.2
						C261,430.3,259,432.2,260.3,433.5L260.3,433.5z"/>
				</g>
				<g>
					<path class="st3" d="M281.5,410.2c0,3.1,0,6.2,0,9.4c0,1.8,2.8,1.8,2.8,0c0-3.1,0-6.2,0-9.4
						C284.3,408.4,281.5,408.4,281.5,410.2L281.5,410.2z"/>
				</g>
				<g>
					<path class="st3" d="M163.8,453c3.9,3.8,7.7,7.7,11.5,11.5c1.3,1.3,3.2-0.7,2-2c-3.9-3.9-7.7-7.7-11.5-11.5
						C164.5,449.7,162.5,451.7,163.8,453L163.8,453z"/>
				</g>
				<g>
					<path class="st3" d="M211.3,464c-2.6,2.6-5.3,5.3-7.9,7.9c-1.3,1.3,0.7,3.2,2,2c2.6-2.6,5.3-5.3,7.9-7.9
						C214.6,464.7,212.6,462.7,211.3,464L211.3,464z"/>
				</g>
				<g>
					<path class="st3" d="M228.6,450.8c2.9,2.9,5.8,5.8,8.6,8.6c1.3,1.3,3.2-0.7,2-2c-2.9-2.9-5.8-5.8-8.6-8.6
						C229.3,447.6,227.3,449.5,228.6,450.8L228.6,450.8z"/>
				</g>
				<g>
					<path class="st3" d="M259.4,492.6c3.4-3.4,6.7-6.7,10.1-10.1c1.3-1.3-0.7-3.2-2-2c-3.4,3.4-6.7,6.7-10.1,10.1
						C256.2,491.9,258.1,493.9,259.4,492.6L259.4,492.6z"/>
				</g>
				<g>
					<path class="st3" d="M274,456.6c3.1,3.1,6.2,6.2,9.4,9.4c1.3,1.3,3.2-0.7,2-2c-3.1-3.1-6.2-6.2-9.4-9.4
						C274.7,453.3,272.7,455.3,274,456.6L274,456.6z"/>
				</g>
				<g>
					<path class="st3" d="M306.4,435.9c-1.7,1.7-3.4,3.4-5,5c-1.3,1.3,0.7,3.2,2,2c1.7-1.7,3.4-3.4,5-5
						C309.7,436.6,307.7,434.6,306.4,435.9L306.4,435.9z"/>
				</g>
				<g>
					<path class="st3" d="M147.9,483.9c3.9,3.9,7.7,7.7,11.5,11.5c1.3,1.3,3.2-0.7,2-2c-3.9-3.8-7.7-7.7-11.5-11.5
						C148.6,480.7,146.7,482.7,147.9,483.9L147.9,483.9z"/>
				</g>
				<g>
					<path class="st3" d="M183,509.9c2.4-2.4,4.8-4.8,7.2-7.2c1.3-1.3-0.7-3.2-2-2c-2.4,2.4-4.8,4.8-7.2,7.2
						C179.8,509.2,181.8,511.1,183,509.9L183,509.9z"/>
				</g>
				<g>
					<path class="st3" d="M200.8,490.2c0,5,0,10.1,0,15.1c0,1.8,2.8,1.8,2.8,0c0-5,0-10.1,0-15.1
						C203.6,488.4,200.8,488.4,200.8,490.2L200.8,490.2z"/>
				</g>
				<g>
					<path class="st3" d="M224.8,525c2.9-2.9,5.8-5.8,8.6-8.6c1.3-1.3-0.7-3.2-2-2c-2.9,2.9-5.8,5.8-8.6,8.6
						C221.6,524.3,223.6,526.3,224.8,525L224.8,525z"/>
				</g>
				<g>
					<path class="st3" d="M228.6,483.9c1.9,1.9,3.9,3.9,5.8,5.8c1.3,1.3,3.2-0.7,2-2c-1.9-1.9-3.9-3.9-5.8-5.8
						C229.3,480.7,227.3,482.7,228.6,483.9L228.6,483.9z"/>
				</g>
				<g>
					<path class="st3" d="M269.5,517.8c2.6-2.6,5.3-5.3,7.9-7.9c1.3-1.3-0.7-3.2-2-2c-2.6,2.6-5.3,5.3-7.9,7.9
						C266.2,517.1,268.2,519.1,269.5,517.8L269.5,517.8z"/>
				</g>
				<g>
					<path class="st3" d="M286.3,478.9c2.9,2.9,5.8,5.8,8.6,8.6c1.3,1.3,3.2-0.7,2-2c-2.9-2.9-5.8-5.8-8.6-8.6
						C286.9,475.7,285,477.6,286.3,478.9L286.3,478.9z"/>
				</g>
				<g>
					<path class="st3" d="M312.7,502c1.7-1.7,3.4-3.4,5-5c1.3-1.3-0.7-3.2-2-2c-1.7,1.7-3.4,3.4-5,5
						C309.5,501.2,311.5,503.2,312.7,502L312.7,502z"/>
				</g>
				<g>
					<path class="st3" d="M317.9,460.9c4.1,4.1,8.2,8.2,12.2,12.2c1.3,1.3,3.2-0.7,2-2c-4.1-4.1-8.2-8.2-12.2-12.2
						C318.7,457.7,316.7,459.6,317.9,460.9L317.9,460.9z"/>
				</g>
			</g>
		</g>
	</g>
</g>
</svg>
