<?xml version="1.0" encoding="utf-8"?>
<!-- Generator: Adobe Illustrator 23.0.1, SVG Export Plug-In . SVG Version: 6.00 Build 0)  -->
<svg version="1.1" id="Слой_1" xmlns="http://www.w3.org/2000/svg" xmlns:xlink="http://www.w3.org/1999/xlink" x="0px" y="0px"
	 viewBox="0 0 2800 2000" style="enable-background:new 0 0 2800 2000;" xml:space="preserve">
<style type="text/css">
	.st0{opacity:0.7;fill:#E3EAFF;}
	.st1{fill:#FFFFFF;}
	.st2{fill:#F95959;}
	.st3{fill:#C62E2E;}
	.st4{fill:#062440;}
	.st5{fill:#F37A50;}
	.st6{fill:#2C2858;}
	.st7{fill:#DE623C;}
	.st8{fill:#281FA0;}
	.st9{fill:#F57191;}
	.st10{fill:#F3DAD1;}
	.st11{fill:#F5A3B7;}
	.st12{fill:#3E2ABE;}
	.st13{fill:#A11A3D;}
	.st14{fill:#C4204A;}
	.st15{fill:#E3EAFF;}
	.st16{fill:#3F964F;}
	.st17{fill:#0E6A41;}
	.st18{fill:#E62552;}
	.st19{fill:#4364CC;}
	.st20{fill:#768FDB;}
	.st21{fill:#B0173E;}
	.st22{fill:#F3C8B9;}
	.st23{fill:#F3AE9C;}
	.st24{fill:#DE6280;}
	.st25{fill:#607FDB;}
</style>
<g>
	<path class="st0" d="M219.48,1718.52c-150.17-168.73-76.03-349.14,6.77-535.95c30.04-67.77-44.25-136.63-63.26-208.28
		C108.3,768.14,273.83,542.69,421.14,506.1c174.58-43.36,285.97-64.81,360-116.36c91.16-63.48,169.2-254.87,516.46-273.33
		c473.67-25.17,412.72,195.11,659.35,208.33c635.29,34.05,412.25,376.38,516.42,590.72c65.5,209.37,190.71,95.1,216.74,306.1
		c21.66,175.56-29.58,355.17-40.69,529.18L219.48,1718.52z"/>
	<g>
		<polygon class="st1" points="729.57,846.84 681.7,1187.96 1480.33,1610.13 1689.97,979.48 1056.43,681.8 		"/>
		<path class="st2" d="M739.69,1685.78H335.61v0c0-39.96,32.39-72.35,72.35-72.35h259.38
			C707.3,1613.43,739.69,1645.83,739.69,1685.78L739.69,1685.78z"/>
		
			<rect x="465.72" y="1011.3" transform="matrix(0.9907 -0.1362 0.1362 0.9907 -175.1931 77.6982)" class="st2" width="28.92" height="615.55"/>
		
			<rect x="556.19" y="530.57" transform="matrix(0.7779 0.6283 -0.6283 0.7779 653.4892 -172.3978)" class="st2" width="28.92" height="615.55"/>
		<path class="st3" d="M472.96,1018.35c-2.75,19.62-20.88,33.29-40.5,30.54c-19.62-2.75-33.29-20.88-30.54-40.5
			c2.75-19.62,20.88-33.29,40.5-30.54C462.04,980.6,475.71,998.73,472.96,1018.35z"/>
		<g>
			<path class="st3" d="M860.12,588.01c-7.29,37.24-43.38,61.52-80.62,54.24c-37.24-7.29-61.52-43.38-54.24-80.62
				c7.28-37.24,43.38-61.52,80.62-54.24C843.12,514.68,867.41,550.77,860.12,588.01z"/>
			<path class="st2" d="M1056.43,681.8L729.57,846.84c-4.24-8.4-7.95-16.9-11.16-25.46c-37.25-99.49-5.4-206.97,77.7-248.94
				c82.03-41.43,185.79-4.75,244.18,81.84C1046.15,662.96,1051.56,672.15,1056.43,681.8z"/>
			<path class="st3" d="M1056.43,681.8L729.57,846.84c-4.24-8.4-7.95-16.9-11.16-25.46l321.88-167.1
				C1046.15,662.96,1051.56,672.15,1056.43,681.8z"/>
		</g>
	</g>
	<g>
		<g>
			<path class="st4" d="M1434.75,1216.84c-98.19-15.45-248.41-128.62-179.62-279.08c68.79-150.46,118.43-101.62,53.58-255.83
				c-64.85-154.21,25.11-302.64,140.22-291.6c115.11,11.03,159.88,93.85,289.14,45.84c129.26-48.01,264.31,55.54,234.87,173.53
				c-29.43,117.99-40.87,174.28,17.68,225.19c58.55,50.92,282.78,74.75,222.08,235.38s-73.94,213.7-25.27,278.74
				c183,244.61-108.16,344.94-233.16,357.12c-125,12.18-497.89-16.1-569.3-144.54C1313.54,1433.14,1434.75,1216.84,1434.75,1216.84z
				"/>
			<g>
				<path class="st5" d="M1230.94,1279.99c13.7,34.24-55.91,138.94-86.9,134.61c-142.55-74.44-271.63-296.63-271.63-296.63
					l42.22-58.98C914.64,1059,1061.05,1166.99,1230.94,1279.99z"/>
				<path class="st5" d="M1584.9,1199.53c-84.24,71.31-401.9,223.76-440.85,215.08l24.32-147.85c0,0,293-200.73,345.75-232.71
					C1605.33,978.46,1722.65,1083.37,1584.9,1199.53z"/>
			</g>
			<g>
				<path class="st5" d="M836.15,966.75c-8.49-8.06-61.24-23.29-74.72-20.2c-15.69,3.51-59.38,30.81-68.65,36.56
					c-9.27,5.75-2.32,14.44,12.75,15.27c19.54-0.2,38.58-6.16,54.75-17.14c22.7,6.77,39.08,12.68,41.14,14.03
					c13.67,5.91,19.96,21.77,14.05,35.44c-3.85,8.92-12.21,15.07-21.87,16.11l-2.29-0.02c9.76,21.15,16.5,43.57,20.04,66.59
					c21.62,6.45,38.84,18.2,63.24,2.89l41.73-55.6C909.13,1043.65,849.95,979.7,836.15,966.75z"/>
				<g>
					<path class="st6" d="M634.99,1010.5l-7.66-1.33c-2.24-0.39-3.83-2.39-3.71-4.66l0,0c0.12-2.28,1.94-4.1,4.22-4.23l7.71-0.45
						c2.62-0.15,4.82,1.97,4.75,4.6l-0.05,1.78C640.17,1008.93,637.68,1010.96,634.99,1010.5z"/>
					<path class="st6" d="M1028.42,1030.85l-30.13,0.05c-1.29,0-2.33-1.04-2.34-2.33l-0.02-12.83c0-1.29,1.04-2.34,2.33-2.34
						l30.13-0.05c1.29,0,2.34,1.04,2.34,2.33l0.02,12.83C1030.76,1029.8,1029.71,1030.85,1028.42,1030.85z"/>
					<path class="st6" d="M1012.78,1011.15l-0.37,11.81l-0.46,11.58c-0.13,2.07-1.92,3.65-4,3.52l-276.41-12.78
						c-8.31-0.43-98.72-9.36-97.98-14.55l0.37-6.12l0.23-5.11c0.15-3.99,90.49-5.61,98.87-5.34l275.71,13.06
						c2-0.22,3.8,1.22,4.02,3.22C1012.8,1010.68,1012.8,1010.91,1012.78,1011.15z"/>
				</g>
				<path class="st5" d="M754.53,1014.19c-8.83-4.81-22.78-8.96-32.6-6.77c-31.95,8.67,2.03,26.58,11.6,38.01
					c9.8,11.72,29.44,69.13,119.9,78.21c3.97,4.13-28.97-82.86-49.42-79.98C783.9,1046.5,763.07,1019.1,754.53,1014.19z"/>
			</g>
			<path class="st7" d="M1771.47,887.36l-6.3,175.96c0,0-91.62,65.45-162.47,21.85c10.9-54.5,25.74-144.14,25.74-144.14
				L1771.47,887.36z"/>
			<path class="st8" d="M1601.54,1004.35c0,0-119.6,9.55-297.02,156.43c17.26,11.95,108.64,146.5,108.64,146.5l127.08-37.85
				L1601.54,1004.35z"/>
			<g>
				<path class="st5" d="M1431.22,779.34c24.48,135.2,125.85,230.03,226.42,211.82c100.57-18.21,162.26-142.56,137.78-277.76
					c-24.48-135.19-125.85-230.03-226.42-211.82C1468.43,519.79,1406.74,644.15,1431.22,779.34z"/>
				<path class="st4" d="M1807.53,711.21c-102.85,5.35-206.46-33.75-272.36-96.58c-18.78,90.78-103.96,164.71-103.96,164.71
					s-100.81-148.89,13.44-259.74C1553.66,413.85,1860.01,417.16,1807.53,711.21z"/>
				<path d="M1655.99,794.46c10.69-1.93,17.78-12.17,15.85-22.86c-1.93-10.69-12.17-17.78-22.86-15.85
					c-10.69,1.94-17.79,12.17-15.85,22.86S1645.3,796.39,1655.99,794.46z"/>
				<path d="M1513.92,818.36c10.69-1.94,17.78-12.17,15.85-22.86c-1.93-10.69-12.17-17.78-22.86-15.85
					c-10.69,1.94-17.79,12.17-15.85,22.86C1493,813.2,1503.23,820.3,1513.92,818.36z"/>
				<path class="st7" d="M1575.03,801.45c-13.29,34.83-17.85,49.72-25.38,58.5c13.28,19.63,50.64,19.71,59.52,14.18
					c-27.33-4.23-35.64-18.99-35.64-18.99L1575.03,801.45z"/>
				<path class="st5" d="M1771.63,737.22c-16.08,30.21-10.97,64.35,11.41,76.28c22.39,11.92,53.57-2.9,69.66-33.11
					c16.08-30.21,10.97-64.36-11.41-76.28C1818.9,692.19,1787.72,707.01,1771.63,737.22z"/>
				<g>
					<path class="st7" d="M1800.29,791c0.8-0.15,1.59-0.45,2.32-0.92c2.91-1.9,3.73-5.8,1.83-8.72c-6.32-9.67-7.95-18.09-4.83-25
						c4.81-10.67,19.68-16.39,30.93-18.04c3.44-0.5,5.82-3.7,5.31-7.15c-0.5-3.44-3.7-5.82-7.15-5.32
						c-15.1,2.22-33.69,10.04-40.58,25.33c-3.43,7.62-5.22,20.23,5.77,37.06C1795.32,790.43,1797.87,791.43,1800.29,791z"/>
				</g>
				<g>
					<path class="st4" d="M1457.41,766.37c0.39-0.63,0.86-1.23,1.41-1.79c23.87-24.14,47.34-28.31,48.33-28.48
						c5.45-0.92,10.62,2.76,11.53,8.22c0.91,5.43-2.73,10.57-8.15,11.52c-0.49,0.09-18.59,3.73-37.47,22.82
						c-3.89,3.93-10.22,3.97-14.16,0.08C1455.52,775.4,1455.01,770.25,1457.41,766.37z"/>
				</g>
				<g>
					<path class="st4" d="M1633.07,712.77c0.71-0.24,1.45-0.4,2.22-0.48c33.79-3.35,54.51,8.42,55.38,8.92
						c4.78,2.78,6.41,8.9,3.63,13.68c-2.76,4.76-8.85,6.39-13.63,3.66c-0.44-0.24-16.69-9-43.41-6.35
						c-5.5,0.54-10.4-3.47-10.95-8.98C1625.85,718.51,1628.75,714.23,1633.07,712.77z"/>
				</g>
				<path class="st1" d="M1566.08,919.95c-3.28-3.28-1.83-9.21,2.35-9.55c10.65-0.85,28.15-2.68,44.45-6.29
					c16.3-3.61,32.94-9.35,42.95-13.07c3.94-1.46,7.75,3.3,6.16,7.66c-4.89,13.42-16.42,34.69-41.4,40.22
					C1595.61,944.46,1576.17,930.05,1566.08,919.95z"/>
			</g>
			<g>
				<polygon class="st9" points="698.13,1368.4 659.56,1177.3 980,1330.67 750.91,1387.78 				"/>
				<polygon class="st10" points="709.91,1352.79 674.11,1184 690.98,1171.54 971.26,1308.6 				"/>
				<path class="st1" d="M704.73,1359.51c12.41-19.71,55.95-46.58,112.83-41.13c56.88,5.44,252.34-32.68,265.35-40.43
					c18.13,15.63,348.42,296.43,348.42,296.43l-13.72,24.89L704.73,1359.51z"/>
				<polygon class="st9" points="1436.61,1604.34 1428.24,1619.25 1081.4,1651.76 698.13,1368.4 706.5,1353.5 1061.71,1306.08 				
					"/>
				<polygon class="st11" points="1421.34,1614.68 1066.14,1662.09 691.24,1363.83 1046.44,1316.41 				"/>
				<g>
					<g>
						<path class="st9" d="M931.57,1389.1c-4.5-42.39,51.11-30.13,64.81,7.08c11.83,32.11,9.72,56.3,7.68,73.36
							C848.08,1449.19,871.43,1356.88,931.57,1389.1z"/>
					</g>
				</g>
				<g>
					<g>
						<path class="st9" d="M1145.26,1449.05c-1.76-16.56,19.96-11.77,25.31,2.77c4.62,12.54,3.8,21.99,3,28.65
							C1112.66,1472.52,1121.77,1436.47,1145.26,1449.05z"/>
					</g>
				</g>
				<g>
					<g>
						<path class="st9" d="M989.17,1516.94c-1.76-16.56,19.96-11.77,25.31,2.77c4.62,12.54,3.8,21.99,3,28.65
							C956.57,1540.42,965.68,1504.36,989.17,1516.94z"/>
					</g>
				</g>
				<g>
					<g>
						<path class="st9" d="M895.73,1483.28c-1.76-16.55,19.96-11.77,25.31,2.77c4.62,12.54,3.8,21.99,3,28.65
							C863.13,1506.75,872.24,1470.7,895.73,1483.28z"/>
					</g>
				</g>
				<g>
					<g>
						<path class="st9" d="M1057.97,1428.12c-1.76-16.56,19.96-11.77,25.31,2.77c4.62,12.54,3.8,21.99,3,28.65
							C1025.37,1451.59,1034.48,1415.54,1057.97,1428.12z"/>
					</g>
				</g>
				<g>
					<g>
						<path class="st9" d="M1154.93,1527.76c-1.76-16.56,19.96-11.77,25.31,2.77c4.62,12.54,3.8,21.99,3,28.65
							C1122.32,1551.23,1131.44,1515.18,1154.93,1527.76z"/>
					</g>
				</g>
				<g>
					<g>
						<path class="st9" d="M1225.14,1516.94c-1.76-16.56,19.96-11.77,25.31,2.77c4.62,12.54,3.8,21.99,3,28.65
							C1192.53,1540.42,1201.65,1504.36,1225.14,1516.94z"/>
					</g>
				</g>
				<g>
					<g>
						<path class="st9" d="M1225.14,1584.98c-1.76-16.55,19.96-11.77,25.31,2.77c4.62,12.54,3.8,21.99,3,28.65
							C1192.53,1608.45,1201.65,1572.4,1225.14,1584.98z"/>
					</g>
				</g>
				<g>
					<g>
						<path class="st9" d="M1300.49,1584.98c-1.76-16.55,19.96-11.77,25.31,2.77c4.62,12.54,3.8,21.99,3,28.65
							C1267.88,1608.45,1277,1572.4,1300.49,1584.98z"/>
					</g>
				</g>
			</g>
			<g>
				<g>
					<g>
						<path class="st12" d="M1875.42,1631.9c-5.85-36.82-14.18-101.95-2.58-164.97c28.01-129.76,96.04-320.43,59.2-428.66
							c-24.64-32.11-130.46-65.77-161.64-63.91c-14.85,67.32-143.17,173.24-152.19,25.7c-86.04,15.93-153.05,156.46-168.18,250.52
							c-4.88,71.2,17.33,146.14,22.74,218.06c13.44,106.36-18.78,158.99-42.96,265.92l498.13-1.69
							C1898.92,1666.43,1877.85,1639.76,1875.42,1631.9z"/>
					</g>
				</g>
			</g>
			<path class="st5" d="M1634.2,1515.89c38.75,15.37,55.56,140.45,44.08,149.43c-171.9,59.14-426.07-13.62-426.07-13.62l-7.97-75.57
				C1294.54,1573.36,1409.4,1567.49,1634.2,1515.89z"/>
			<path class="st5" d="M1969.01,1231.51c-43.01,113.81-248.54,421.33-290.73,433.81l-85.26-131.54c0,0,185.48-364.81,219.21-423.86
				C1870.38,1007.53,2039.59,1045.84,1969.01,1231.51z"/>
			<path class="st8" d="M1897.82,1003.84c18.54,0.92,111.29-1.23,105.47,171.06c2.38,70.62-65.69,196.74-65.69,196.74
				s-131.27-38.43-223.73-112.38C1715.94,1222.84,1806.77,1012.52,1897.82,1003.84z"/>
			<g>
				<g>
					<g>
						<g>
							<path class="st5" d="M1089.77,1632.7c26.75,3.65,105.27,7.89,162.44,18.99l-7.97-75.57
								c-42.13,2.23-101.51-74.14-184.92-86.58c-28.45-4.24-41.43-8.59-43.95-4.94c-2.52,3.65-11.43,28.56,29.66,36.65
								c51.56,10.15,13.9,49.15-88.68,1.64c-25.68-11.89-76.39-2.76-59.85,17.9C914.74,1563.57,968.07,1616.08,1089.77,1632.7z"/>
						</g>
					</g>
				</g>
			</g>
		</g>
	</g>
	<path class="st2" d="M186.23,1765.91h2460.86c22.07,0,39.97-17.89,39.97-39.97v-1.32c0-22.07-17.9-39.97-39.97-39.97H186.23
		c-22.07,0-39.97,17.89-39.97,39.97v1.32C146.26,1748.02,164.15,1765.91,186.23,1765.91z"/>
	<g>
		<g>
			<g>
				<path class="st13" d="M2449.13,1597.02H2051.9c-6.96,0-12.61,4.86-12.61,10.86v65.99c0,6,5.65,10.86,12.61,10.86h397.23V1597.02
					z"/>
			</g>
			<path class="st14" d="M2462.78,1614.12v53.3c0,1.94,1.66,3.53,3.69,3.53h140.86c3.96,0,7.17,3.07,7.17,6.87l0,0
				c0,3.79-3.21,6.87-7.17,6.87h-155.92c-4.26,0-7.72-3.46-7.72-7.72v-72.39c0-4.26,3.46-7.72,7.72-7.72h155.92
				c3.96,0,7.17,3.08,7.17,6.87v0.04c0,3.79-3.21,6.87-7.17,6.87h-140.89C2464.43,1610.62,2462.78,1612.19,2462.78,1614.12z"/>
			<path class="st1" d="M2600.82,1670.95h-134.21c-3.86,0-6.99-3.13-6.99-6.99v-46.37c0-3.86,3.13-6.99,6.99-6.99h134.21V1670.95z"
				/>
			<rect x="2472.16" y="1620.92" class="st15" width="104.35" height="5.43"/>
			<rect x="2529.64" y="1634.59" class="st15" width="65.18" height="5.43"/>
			<rect x="2465.04" y="1660.55" class="st15" width="84.28" height="5.43"/>
			<rect x="2483.71" y="1648.14" class="st15" width="39.51" height="5.43"/>
			<path class="st14" d="M2388.51,1665.82H2087.1c-5.61,0-10.16-4.55-10.16-10.16v-29.57c0-5.61,4.55-10.16,10.16-10.16h301.41
				c5.61,0,10.16,4.55,10.16,10.16v29.57C2398.67,1661.27,2394.12,1665.82,2388.51,1665.82z"/>
		</g>
		<g>
			<g>
				<path class="st11" d="M2225.57,1433.41h408.64c6.65,0,12.03,5.39,12.03,12.03v61.56c0,6.65-5.39,12.03-12.03,12.03h-408.64
					V1433.41z"/>
			</g>
			<path class="st9" d="M2212.24,1450.1v52.04c0,1.9-1.62,3.45-3.6,3.45h-137.51c-3.87,0-7,3-7,6.7l0,0c0,3.7,3.14,6.71,7,6.71
				h152.22c4.16,0,7.54-3.37,7.54-7.54v-70.68c0-4.16-3.37-7.54-7.54-7.54h-152.22c-3.87,0-7,3-7,6.7v0.04c0,3.7,3.14,6.7,7,6.7
				h137.55C2210.64,1446.69,2212.24,1448.23,2212.24,1450.1z"/>
			<path class="st1" d="M2077.48,1505.59h133.33c3.8,0,6.88-3.08,6.88-6.88v-45.15c0-3.8-3.08-6.88-6.88-6.88h-133.33V1505.59z"/>
			<path class="st9" d="M2323.79,1433.41c0,0,16.35,36.8,0.27,85.63c7.33,0,21.28-0.05,21.28-0.05s17.37-37.74,0-85.58
				C2337.07,1433.41,2323.79,1433.41,2323.79,1433.41z"/>
			<path class="st9" d="M2287.51,1433.41c0,0,16.35,36.8,0.28,85.63c7.33,0,21.28-0.05,21.28-0.05s17.37-37.74,0-85.58
				C2300.79,1433.41,2287.51,1433.41,2287.51,1433.41z"/>
			<rect x="2129.89" y="1455.13" class="st15" width="73.56" height="5.41"/>
			<rect x="2114.98" y="1492.1" class="st15" width="73.56" height="5.41"/>
			<rect x="2141.48" y="1480.86" class="st15" width="73.56" height="5.41"/>
		</g>
		<g>
			<g>
				<path class="st16" d="M2415.33,1345.75h-405.91c-6.96,0-12.61,4.86-12.61,10.86v65.99c0,6,5.65,10.86,12.61,10.86h405.91
					V1345.75z"/>
			</g>
			<path class="st17" d="M2428.98,1362.85v53.3c0,1.94,1.66,3.53,3.69,3.53h140.86c3.96,0,7.18,3.08,7.18,6.87l0,0
				c0,3.79-3.21,6.87-7.18,6.87H2417.6c-4.26,0-7.72-3.46-7.72-7.72v-72.39c0-4.26,3.46-7.72,7.72-7.72h155.92
				c3.96,0,7.18,3.08,7.18,6.87v0.03c0,3.8-3.21,6.87-7.18,6.87h-140.89C2430.63,1359.35,2428.98,1360.92,2428.98,1362.85z"/>
			<path class="st1" d="M2567.02,1419.68h-134.21c-3.86,0-6.99-3.13-6.99-6.99v-46.37c0-3.86,3.13-6.99,6.99-6.99h134.21V1419.68z"
				/>
			<path class="st17" d="M2081.42,1345.75c0,0-16.35,37.69-0.27,87.71c-7.33,0-21.28-0.05-21.28-0.05s-17.37-38.65,0-87.67
				C2068.14,1345.75,2081.42,1345.75,2081.42,1345.75z"/>
			<path class="st17" d="M2332.52,1345.75c0,0-16.35,37.69-0.27,87.71c-7.33,0-21.28-0.05-21.28-0.05s-17.37-38.65,0-87.67
				C2319.24,1345.75,2332.52,1345.75,2332.52,1345.75z"/>
			<rect x="2438.36" y="1369.65" class="st15" width="104.35" height="5.43"/>
			<rect x="2495.84" y="1383.32" class="st15" width="65.18" height="5.43"/>
			<rect x="2431.24" y="1409.28" class="st15" width="84.28" height="5.43"/>
			<rect x="2449.91" y="1396.88" class="st15" width="39.51" height="5.42"/>
			<polygon class="st18" points="2489.23,1445.45 2466.39,1434.86 2445.74,1445.45 2445.74,1389.6 2489.23,1389.6 			"/>
		</g>
		<g>
			<path class="st19" d="M2005.41,1596.42l274.69,1.95l0.41-80.6l-274.69-1.95c-6.25-0.03-11.34,5.01-11.38,11.26l-0.3,57.97
				C1994.12,1591.3,1999.16,1596.39,2005.41,1596.42z"/>
			<g>
				<path class="st1" d="M2273.48,1583.97l299.64-0.3l-0.11-50.02l-296.04-2.75c-1.47-0.01-6.17,4.15-6.18,5.26l0,0l0.13,45.6
					C2270.92,1582.85,2272.02,1583.96,2273.48,1583.97L2273.48,1583.97z"/>
				<path class="st20" d="M2580.38,1599.15c4.4,0.39,8.08-2.53,8.84-6.94c0.39-4.41-2.53-8.1-6.92-8.86c-0.73,0-1.1-0.01-1.83-0.01
					l-297.08,0.32c-3.3-0.02-6.6-0.04-9.9-0.42c-1.08-3.31-1.8-7-1.41-10.67l-0.22-27.95c0.02-3.31,0.03-6.62,0.79-9.93
					c3.67-1.08,7.34-1.43,11.01-1.05l297.08-0.32c4.4,0.39,8.08-2.53,8.84-6.94c0.39-4.41-2.52-8.1-6.92-8.86
					c-0.73,0-1.1-0.01-1.83-0.01l-319.45-0.16c-4.77-0.02-8.82,4-8.85,8.78l0.04,63.62c-0.03,4.78,3.99,8.85,8.76,8.87
					L2580.38,1599.15z"/>
			</g>
			<rect x="2289" y="1563.71" class="st15" width="160.43" height="4.88"/>
			<rect x="2316.79" y="1549.92" class="st15" width="160.43" height="4.88"/>
			<rect x="2296.15" y="1539.65" class="st15" width="68.87" height="4.88"/>
			<rect x="2397" y="1572.69" class="st15" width="160.43" height="4.88"/>
		</g>
	</g>
	<g>
		<path class="st9" d="M421.14,1410.64c0-9.18-47.25-16.62-105.54-16.62c-58.29,0-105.54,7.44-105.54,16.62
			c0,9.18,47.25,16.62,105.54,16.62C373.89,1427.26,421.14,1419.81,421.14,1410.64z"/>
		<g>
			<polygon class="st21" points="286.82,1637.07 343.05,1203.06 382.71,1208.24 326.47,1642.26 			"/>
			<path class="st18" d="M284.05,1658.22l2.77-21.15l39.65,5.19l-2.77,21.15c-0.98,7.46-7.82,12.72-15.28,11.75l-12.62-1.65
				C288.33,1672.53,283.07,1665.69,284.05,1658.22z"/>
			
				<rect x="298.22" y="1611.26" transform="matrix(-0.1297 0.9916 -0.9916 -0.1297 1965.1738 1537.6438)" class="st22" width="19.08" height="40.03"/>
			<path class="st23" d="M285.91,1636.85l0.11-0.84c0.08-0.65,0.68-1.11,1.33-1.02l39.38,5.15c0.65,0.08,1.11,0.68,1.02,1.33
				l-0.11,0.84c-0.08,0.65-0.68,1.11-1.33,1.02l-39.38-5.15C286.29,1638.09,285.83,1637.5,285.91,1636.85z"/>
			<path class="st23" d="M286.98,1627.73l0.11-0.84c0.09-0.65,0.68-1.1,1.33-1.02l39.37,5.15c0.65,0.09,1.11,0.68,1.02,1.33
				l-0.11,0.84c-0.08,0.65-0.68,1.1-1.33,1.02l-39.38-5.15C287.35,1628.97,286.89,1628.38,286.98,1627.73z"/>
			<path class="st23" d="M288.32,1618.22l0.11-0.84c0.08-0.65,0.68-1.11,1.33-1.02l39.38,5.15c0.65,0.08,1.11,0.68,1.02,1.33
				l-0.11,0.84c-0.08,0.65-0.68,1.11-1.33,1.02l-39.38-5.15C288.69,1619.47,288.24,1618.87,288.32,1618.22z"/>
			<path class="st22" d="M362.18,1211.02c10.95,1.43,20.14,0.21,20.52-2.74c0-0.01,0-0.03,0-0.04l0,0l0-0.01
				c0.03-0.29-0.04-0.59-0.18-0.89l-6.61-33.53l-4.71-23.9c-0.16-0.81-1.25-0.95-1.62-0.22l-10.79,21.7l-15.32,30.83
				c-0.22,0.26-0.35,0.53-0.41,0.82l-0.01,0.03h0.01c0,0.01-0.01,0.03-0.01,0.04C342.67,1206.04,351.23,1209.59,362.18,1211.02z"/>
			<path class="st18" d="M367.47,1173.82c-3.39-0.44-6.43-1.33-8.67-2.43l10.79-21.7c0.37-0.74,1.46-0.59,1.62,0.22l4.71,23.9
				C373.55,1174.19,370.61,1174.23,367.47,1173.82z"/>
		</g>
		<g>
			<polygon class="st16" points="299.44,1258.58 326.79,1602 286.94,1605.32 259.59,1261.91 			"/>
			<path class="st18" d="M297.67,1237.33l1.77,21.26l-39.85,3.33l-1.78-21.26c-0.63-7.5,4.95-14.09,12.45-14.72l12.68-1.06
				C290.45,1224.25,297.04,1229.82,297.67,1237.33z"/>
			
				<rect x="270.66" y="1248.66" transform="matrix(-0.0832 -0.9965 0.9965 -0.0832 -960.7885 1653.405)" class="st22" width="19.08" height="40.03"/>
			<path class="st23" d="M300.37,1258.61l0.07,0.84c0.05,0.65-0.43,1.22-1.08,1.28l-39.57,3.3c-0.65,0.05-1.22-0.43-1.28-1.08
				l-0.07-0.84c-0.05-0.65,0.43-1.22,1.08-1.28l39.57-3.3C299.75,1257.48,300.32,1257.96,300.37,1258.61z"/>
			<path class="st23" d="M301.26,1267.75l0.07,0.84c0.05,0.65-0.43,1.22-1.08,1.28l-39.57,3.3c-0.65,0.05-1.22-0.43-1.28-1.08
				l-0.07-0.84c-0.06-0.65,0.43-1.22,1.08-1.28l39.57-3.3C300.64,1266.61,301.21,1267.1,301.26,1267.75z"/>
			<path class="st23" d="M301.96,1277.32l0.07,0.84c0.05,0.65-0.43,1.22-1.08,1.28l-39.57,3.3c-0.65,0.05-1.22-0.43-1.28-1.08
				l-0.07-0.85c-0.05-0.65,0.43-1.22,1.08-1.28l39.57-3.3C301.34,1276.19,301.91,1276.67,301.96,1277.32z"/>
			<path class="st22" d="M306.41,1598.26c-11,0.92-19.72,4.06-19.48,7.02c0,0.01,0.01,0.03,0.01,0.04h0l0.01,0.01
				c0.04,0.29,0.16,0.57,0.36,0.84l13.56,31.37l9.67,22.36c0.33,0.76,1.43,0.67,1.63-0.13l5.95-23.49l8.45-33.38
				c0.16-0.29,0.23-0.59,0.22-0.88l0.01-0.03l-0.01,0c0-0.01,0-0.03,0-0.04C326.54,1599,317.42,1597.34,306.41,1598.26z"/>
			<path class="st18" d="M309.12,1635.74c3.41-0.29,6.56-0.06,8.99,0.54l-5.95,23.49c-0.2,0.8-1.3,0.89-1.63,0.13l-9.67-22.36
				C303.1,1636.66,305.96,1636.01,309.12,1635.74z"/>
		</g>
		<g>
			<polygon class="st17" points="304.55,1639.61 196.96,1271.95 235,1260.74 342.6,1628.4 			"/>
			<path class="st18" d="M310.53,1659.9l-5.98-20.3l38.05-11.21l5.98,20.3c2.11,7.16-1.99,14.68-9.15,16.79l-12.11,3.57
				C320.16,1671.16,312.64,1667.06,310.53,1659.9z"/>
			
				<rect x="311.76" y="1606.09" transform="matrix(0.2826 0.9592 -0.9592 0.2826 1790.1312 858.3506)" class="st22" width="18.92" height="39.7"/>
			<path class="st23" d="M303.64,1639.77l-0.24-0.81c-0.18-0.62,0.17-1.28,0.79-1.46l37.78-11.13c0.62-0.18,1.28,0.17,1.46,0.79
				l0.24,0.81c0.18,0.62-0.17,1.28-0.79,1.46l-37.78,11.13C304.48,1640.74,303.83,1640.39,303.64,1639.77z"/>
			<path class="st23" d="M300.95,1631.07l-0.24-0.81c-0.18-0.62,0.17-1.27,0.8-1.46l37.78-11.13c0.62-0.18,1.27,0.17,1.46,0.79
				l0.24,0.81c0.18,0.62-0.17,1.28-0.79,1.46l-37.78,11.13C301.79,1632.05,301.13,1631.69,300.95,1631.07z"/>
			<path class="st23" d="M298.35,1621.91l-0.24-0.81c-0.18-0.62,0.17-1.27,0.79-1.46l37.78-11.13c0.62-0.18,1.28,0.17,1.46,0.8
				l0.24,0.8c0.18,0.62-0.17,1.28-0.79,1.46l-37.78,11.13C299.19,1622.88,298.54,1622.53,298.35,1621.91z"/>
			<path class="st22" d="M217.5,1271.49c10.5-3.1,18.35-7.89,17.51-10.72c0-0.01-0.01-0.02-0.01-0.04l0,0l-0.01-0.01
				c-0.09-0.28-0.27-0.52-0.52-0.74l-19.45-27.76l-13.86-19.78c-0.47-0.67-1.52-0.36-1.56,0.45l-1.08,24.01l-1.53,34.11
				c-0.09,0.32-0.11,0.62-0.04,0.9l0,0.03l0.01,0c0,0.01,0,0.03,0.01,0.04C197.8,1274.81,206.99,1274.59,217.5,1271.49z"/>
			<path class="st16" d="M207.37,1235.63c-3.26,0.96-6.36,1.37-8.84,1.28l1.08-24.01c0.04-0.82,1.09-1.12,1.56-0.45l13.86,19.78
				C213.03,1233.53,210.38,1234.74,207.37,1235.63z"/>
		</g>
		<g>
			<polygon class="st17" points="423.91,1295.94 364.01,1593.87 325.19,1585.74 385.09,1287.81 			"/>
			<path class="st18" d="M428.24,1275.22l-4.33,20.71l-38.82-8.12l4.33-20.71c1.53-7.31,8.69-11.99,16-10.46l12.35,2.58
				C425.09,1260.75,429.77,1267.92,428.24,1275.22z"/>
			
				<rect x="393.3" y="1280.23" transform="matrix(0.2048 -0.9788 0.9788 0.2048 -952.244 1428.1091)" class="st22" width="18.92" height="39.7"/>
			<path class="st23" d="M424.79,1296.22l-0.17,0.82c-0.13,0.63-0.75,1.04-1.39,0.91l-38.55-8.06c-0.63-0.13-1.04-0.76-0.91-1.39
				l0.17-0.82c0.13-0.63,0.75-1.04,1.39-0.91l38.55,8.06C424.51,1294.97,424.92,1295.59,424.79,1296.22z"/>
			<path class="st23" d="M423.05,1305.16l-0.17,0.82c-0.13,0.64-0.76,1.04-1.39,0.91l-38.55-8.06c-0.63-0.13-1.04-0.76-0.91-1.39
				l0.17-0.82c0.13-0.63,0.75-1.04,1.39-0.91l38.55,8.06C422.77,1303.9,423.18,1304.52,423.05,1305.16z"/>
			<path class="st23" d="M421,1314.46l-0.17,0.82c-0.13,0.63-0.75,1.04-1.39,0.91l-38.55-8.06c-0.64-0.13-1.04-0.75-0.91-1.39
				l0.17-0.82c0.13-0.63,0.75-1.04,1.39-0.91l38.55,8.06C420.73,1313.2,421.13,1313.83,421,1314.46z"/>
			<path class="st22" d="M345.7,1584.55c-10.72-2.24-19.9-1.72-20.5,1.16c0,0.01,0,0.03,0,0.04l0,0l0,0.02
				c-0.05,0.29-0.01,0.59,0.11,0.9l4.01,33.66l2.86,23.99c0.1,0.81,1.17,1.04,1.58,0.34l12.31-20.65l17.48-29.33
				c0.23-0.24,0.39-0.49,0.46-0.78l0.01-0.02l-0.01,0c0-0.01,0.01-0.02,0.01-0.04C364.62,1590.94,356.42,1586.79,345.7,1584.55z"/>
			<path class="st16" d="M337.66,1620.94c3.32,0.69,6.26,1.8,8.39,3.05l-12.31,20.65c-0.42,0.7-1.49,0.47-1.58-0.34l-2.86-23.99
				C331.67,1620.11,334.59,1620.3,337.66,1620.94z"/>
		</g>
		<path class="st11" d="M421.07,1411.23l-6.03,50.59l-2.68,22.51v0l-16.83,141.31l-2.6,21.8l-4.43,37.21H237.85l-3.81-37.51
			l-2.21-21.74l-14.26-140.58l-2.25-22.19l-5.23-51.51c1.64,8.95,48.24,16.13,105.5,16.13
			C372.62,1427.26,419.09,1420.14,421.07,1411.23z"/>
		<path class="st24" d="M210.05,1410.64l0.05,0.49C210.06,1410.97,210.05,1410.81,210.05,1410.64z"/>
		<path class="st24" d="M421.14,1410.64c0,0.2-0.02,0.4-0.07,0.59L421.14,1410.64z"/>
		<path class="st9" d="M395.52,1625.64l-2.6,21.8c-19.32,3.4-47.39,5.53-78.6,5.53c-32.13,0-60.92-2.26-80.27-5.83l-2.21-21.74
			c19.34,3.81,49.1,6.25,82.47,6.25C346.97,1631.65,376.17,1629.31,395.52,1625.64z"/>
		<path class="st9" d="M415.04,1461.82l-2.68,22.51v0c-15.55,6.13-53.58,10.46-98.04,10.46c-43.26,0-80.45-4.1-96.74-9.97
			l-2.25-22.19c14.92,6.33,53.6,10.83,98.98,10.83C361.59,1473.47,401.61,1468.57,415.04,1461.82z"/>
	</g>
	<g>
		<g>
			<g>
				<path class="st25" d="M2422.31,1300.53h-39.77c-6.34,0-11.48-5.14-11.48-11.48c0-6.34,5.14-11.48,11.48-11.48h28.29v-74.7
					h-28.29c-6.34,0-11.48-5.14-11.48-11.48c0-6.34,5.14-11.48,11.48-11.48h39.77c6.34,0,11.48,5.14,11.48,11.48v97.66
					C2433.79,1295.39,2428.65,1300.53,2422.31,1300.53z"/>
			</g>
			<path class="st20" d="M2382.54,1145.89v188.63c0,6.2-5.02,11.22-11.22,11.22h-126.85c-6.19,0-11.22-5.02-11.22-11.22v-188.63
				c0-6.19,5.03-11.22,11.22-11.22h126.85C2377.51,1134.67,2382.54,1139.7,2382.54,1145.89z"/>
		</g>
		<path class="st1" d="M2299.29,1114.58c0,0-56.23-23.89-38.83-67.15c17.4-43.25,80.67-37.56,44.69-100.21
			c43.4,25.06,49.92,80.88,16.21,94.55C2287.65,1055.45,2285.93,1090.05,2299.29,1114.58z"/>
		<path class="st1" d="M2352.14,1114.58c0,0-39.99-16.99-27.61-47.75c12.37-30.76,57.37-26.71,31.78-71.26
			c30.86,17.82,35.5,57.51,11.53,67.23C2343.86,1072.53,2342.63,1097.13,2352.14,1114.58z"/>
		<g>
			<path class="st25" d="M2307.29,1222.41c20.91-24.23,40.16-1.44,35.65,15.61c-3.6,19.03-35.68,44.41-36.26,41.92
				C2238.12,1229.35,2288.52,1193.75,2307.29,1222.41z"/>
		</g>
		<path class="st25" d="M2382.54,1328.85v5.67c0,6.2-5.02,11.22-11.22,11.22h-126.85c-6.19,0-11.22-5.02-11.22-11.22v-5.67H2382.54z
			"/>
	</g>
	<g>
		<path class="st1" d="M2099.43,627.5c-19.47,0-35.3-15.84-35.3-35.3c0-19.47,15.84-35.31,35.3-35.31
			c19.47,0,35.31,15.84,35.31,35.31C2134.73,611.66,2118.89,627.5,2099.43,627.5z M2099.43,566.61c-14.11,0-25.58,11.48-25.58,25.58
			c0,14.1,11.48,25.58,25.58,25.58s25.58-11.48,25.58-25.58C2125.01,578.09,2113.53,566.61,2099.43,566.61z"/>
	</g>
	<g>
		<path class="st1" d="M610.39,678.85c-19.47,0-35.31-15.84-35.31-35.31c0-19.47,15.84-35.31,35.31-35.31
			c19.47,0,35.31,15.84,35.31,35.31C645.7,663.01,629.86,678.85,610.39,678.85z M610.39,617.96c-14.11,0-25.58,11.48-25.58,25.58
			c0,14.1,11.48,25.58,25.58,25.58c14.11,0,25.58-11.48,25.58-25.58C635.98,629.44,624.5,617.96,610.39,617.96z"/>
	</g>
	<g>
		<path class="st15" d="M1072.74,830.08c-19.47,0-35.31-15.84-35.31-35.31c0-19.47,15.84-35.31,35.31-35.31
			c19.47,0,35.31,15.84,35.31,35.31C1108.04,814.24,1092.2,830.08,1072.74,830.08z M1072.74,769.2c-14.1,0-25.58,11.48-25.58,25.58
			c0,14.11,11.48,25.58,25.58,25.58c14.11,0,25.58-11.47,25.58-25.58C1098.32,780.67,1086.84,769.2,1072.74,769.2z"/>
	</g>
	<g>
		<path class="st1" d="M235.86,889.44c-13.09,0-23.73-10.65-23.73-23.73c0-13.09,10.65-23.73,23.73-23.73
			c13.09,0,23.73,10.65,23.73,23.73C259.59,878.79,248.94,889.44,235.86,889.44z M235.86,848.51c-9.48,0-17.2,7.71-17.2,17.2
			c0,9.48,7.71,17.2,17.2,17.2c9.48,0,17.2-7.72,17.2-17.2C253.05,856.22,245.34,848.51,235.86,848.51z"/>
	</g>
	<g>
		<path class="st1" d="M1258.56,270.98c-19.36-2.06-33.43-19.49-31.37-38.84c2.06-19.36,19.49-33.43,38.84-31.37
			c19.36,2.06,33.43,19.49,31.37,38.84C1295.35,258.97,1277.92,273.04,1258.56,270.98z M1265.01,210.44
			c-14.03-1.49-26.65,8.7-28.15,22.73c-1.49,14.03,8.7,26.65,22.73,28.15c14.03,1.49,26.65-8.7,28.15-22.73
			C1289.23,224.56,1279.03,211.93,1265.01,210.44z"/>
	</g>
	<path class="st1" d="M2186.54,535.53c0,10.97-8.9,19.87-19.87,19.87s-19.87-8.9-19.87-19.87c0-10.98,8.9-19.87,19.87-19.87
		S2186.54,524.55,2186.54,535.53z"/>
	<path class="st1" d="M1215.84,305.24c-1.16,10.91-10.95,18.82-21.86,17.66c-10.91-1.16-18.82-10.95-17.66-21.86
		c1.16-10.91,10.95-18.82,21.86-17.66C1209.09,284.54,1217,294.33,1215.84,305.24z"/>
	<path class="st1" d="M1194.07,592.2c0,10.97-8.9,19.87-19.87,19.87c-10.98,0-19.87-8.9-19.87-19.87c0-10.97,8.9-19.87,19.87-19.87
		C1185.17,572.32,1194.07,581.22,1194.07,592.2z"/>
	<path class="st15" d="M1092.61,877.28c0,10.97-8.9,19.87-19.87,19.87c-10.97,0-19.87-8.9-19.87-19.87
		c0-10.98,8.9-19.87,19.87-19.87C1083.71,857.41,1092.61,866.3,1092.61,877.28z"/>
	<path class="st1" d="M2550.09,1155.82c0,10.97-8.9,19.87-19.87,19.87c-10.98,0-19.87-8.9-19.87-19.87
		c0-10.97,8.9-19.87,19.87-19.87C2541.2,1135.95,2550.09,1144.84,2550.09,1155.82z"/>
	<path class="st1" d="M610.39,1362.35c0,10.97-8.9,19.87-19.87,19.87c-10.98,0-19.87-8.9-19.87-19.87s8.9-19.87,19.87-19.87
		C601.5,1342.48,610.39,1351.38,610.39,1362.35z"/>
	
		<ellipse transform="matrix(0.9925 -0.1222 0.1222 0.9925 -88.9983 41.4155)" class="st1" cx="293.19" cy="746.37" rx="49.7" ry="49.7"/>
</g>
</svg>
